<svg viewBox="0 0 100 100" xmlns="http://www.w3.org/2000/svg">
  <rect width="100" height="100" rx="20" fill="#B8B5E4"/>
  <g stroke="#2D2D3A" stroke-width="2" stroke-linecap="round" stroke-linejoin="round" fill="none">
    <!-- Left hand -->
    <path d="M20 55 C25 45, 35 40, 45 42 C47 42, 49 44, 50 48 C51 44, 53 42, 55 42 C57 42, 59 44, 59 48 C60 44, 63 42, 65 43 C67 44, 68 47, 67 52 C70 48, 73 50, 73 54 C73 58, 70 65, 60 72 C55 76, 47 78, 40 76 C33 74, 25 68, 20 55" />
    <!-- Right hand (mirrored) -->
    <path d="M80 55 C75 45, 65 40, 55 42 C53 42, 51 44, 50 48 C49 44, 47 42, 45 42 C43 42, 41 44, 41 48 C40 44, 37 42, 35 43 C33 44, 32 47, 33 52 C30 48, 27 50, 27 54 C27 58, 30 65, 40 72 C45 76, 53 78, 60 76 C67 74, 75 68, 80 55" />
    <!-- Connection point -->
    <circle cx="50" cy="45" r="3" fill="#D0645E" stroke="none" />
  </g>
</svg>
